<?xml version="1.0" encoding="UTF-8"?>
<svg id="Capa_1" xmlns="http://www.w3.org/2000/svg" viewBox="0 0 165.2 64.72">
  <defs>
    <style>
      .cls-1 { fill: #fff; }
    </style>
  </defs>
  <rect class="cls-1" x="108.84" y="48.58" width="14.09" height="2.97"/>
  <path class="cls-1" d="M21.19,43.65h-3.59V12.76h3.59v30.89Z"/>
  <path class="cls-1" d="M26.85,21.85h3.26v21.8h-3.26v-21.8ZM30.25,13.9v4.28h-3.53v-4.28h3.53Z"/>
  <path class="cls-1" d="M45.14,15.86c-1.54,0-2.7.35-3.47,1.04-.77.68-1.16,1.78-1.16,3.29v1.66h5.05v2.88h-5.05v18.93h-3.26v-18.93h-3.74v-2.88h3.74v-1.93c0-2.38.71-4.17,2.13-5.37,1.43-1.2,3.4-1.79,5.93-1.79h.26v3.1h-.43Z"/>
  <path class="cls-1" d="M58.41,41.03c2.93,0,5.03-1.22,6.32-3.66h3.57c-.75,1.98-1.95,3.58-3.59,4.8-1.64,1.22-3.75,1.83-6.33,1.83-3.29,0-5.96-1.09-8.02-3.28-2-2.12-2.99-4.78-2.99-7.98s.96-5.89,2.87-7.99c2.03-2.18,4.67-3.27,7.92-3.27s5.89,1.09,7.92,3.27c1.91,2.1,2.87,4.76,2.87,7.99v1.3h-18.25c.23,2.01,1.03,3.67,2.4,4.98,1.39,1.34,3.16,2,5.31,2ZM58.15,24.46c-2.01,0-3.69.63-5.05,1.88-1.28,1.2-2.07,2.75-2.35,4.67h14.8c-.29-1.92-1.08-3.48-2.35-4.67-1.36-1.25-3.05-1.88-5.05-1.88Z"/>
  <path class="cls-1" d="M76.22,43.65h-3.26V13.11h3.26v30.54Z"/>
  <path class="cls-1" d="M91.33,21.49c3.24,0,5.89,1.09,7.92,3.27,1.91,2.1,2.87,4.76,2.87,7.99s-.96,5.89-2.87,7.98c-2.04,2.19-4.68,3.28-7.92,3.28s-5.9-1.09-7.92-3.28c-1.92-2.09-2.87-4.75-2.87-7.98s.96-5.89,2.87-7.99c2.03-2.18,4.67-3.27,7.92-3.27ZM91.33,41.03c2.34,0,4.2-.81,5.58-2.44,1.31-1.54,1.96-3.49,1.96-5.84s-.65-4.31-1.96-5.85c-1.37-1.62-3.23-2.44-5.58-2.44s-4.21.81-5.58,2.44c-1.31,1.55-1.96,3.5-1.96,5.85s.65,4.3,1.96,5.84c1.36,1.63,3.22,2.44,5.58,2.44Z"/>
  <path class="cls-1" d="M115.89,21.49c3.24,0,5.89,1.09,7.92,3.27,1.91,2.1,2.87,4.76,2.87,7.99s-.96,5.89-2.87,7.98c-2.04,2.19-4.68,3.28-7.92,3.28s-5.9-1.09-7.92-3.28c-1.92-2.09-2.87-4.75-2.87-7.98s.96-5.89,2.87-7.99c2.03-2.18,4.67-3.27,7.92-3.27ZM115.89,41.03c2.34,0,4.2-.81,5.58-2.44,1.31-1.54,1.96-3.49,1.96-5.84s-.65-4.31-1.96-5.85c-1.37-1.62-3.23-2.44-5.58-2.44s-4.21.81-5.58,2.44c-1.31,1.55-1.96,3.5-1.96,5.85s.65,4.3,1.96,5.84c1.36,1.63,3.22,2.44,5.58,2.44Z"/>
  <path class="cls-1" d="M134.26,25.33c1.73-2.56,4.33-3.84,7.79-3.84,3.13,0,5.67,1.09,7.62,3.27,1.95,2.16,2.92,4.82,2.92,7.99s-.97,5.83-2.92,7.98c-1.95,2.19-4.56,3.28-7.84,3.28s-5.8-1.3-7.57-3.89v11.44h-3.26v-29.71h3.26v3.49ZM141.61,24.46c-2.35,0-4.21.81-5.58,2.44-1.31,1.55-1.96,3.5-1.96,5.85s.65,4.3,1.96,5.84c1.37,1.63,3.23,2.44,5.58,2.44s4.21-.81,5.66-2.44c1.36-1.54,2.05-3.49,2.05-5.84s-.68-4.31-2.05-5.85c-1.45-1.62-3.34-2.44-5.66-2.44Z"/>
</svg>